<svg width="99" height="39" viewBox="0 0 99 39" fill="none" xmlns="http://www.w3.org/2000/svg">
<circle cx="19.5" cy="19.4999" r="19.5" fill="#E3B873"/>
<path d="M11.7002 12.2567H27.3002C28.3727 12.2567 29.2502 13.1342 29.2502 14.2067V25.9067C29.2502 26.9792 28.3727 27.8567 27.3002 27.8567H11.7002C10.6277 27.8567 9.75024 26.9792 9.75024 25.9067V14.2067C9.75024 13.1342 10.6277 12.2567 11.7002 12.2567Z" stroke="white" stroke-width="1.5" stroke-linecap="round" stroke-linejoin="round"/>
<path d="M29.2502 14.2073L19.5002 21.0323L9.75024 14.2073" stroke="white" stroke-width="1.5" stroke-linecap="round" stroke-linejoin="round"/>
<circle cx="79.3929" cy="19.4999" r="19.5" fill="#E3B873"/>
<path d="M83.5714 11.6991H75.2142C72.9065 11.6991 71.0356 13.5699 71.0356 15.8776V24.2348C71.0356 26.5425 72.9065 28.4134 75.2142 28.4134H83.5714C85.8791 28.4134 87.7499 26.5425 87.7499 24.2348V15.8776C87.7499 13.5699 85.8791 11.6991 83.5714 11.6991Z" stroke="white" stroke-width="1.5"/>
<path d="M82.7356 19.5299C82.8388 20.2255 82.72 20.9358 82.3961 21.5599C82.0723 22.184 81.5599 22.6901 80.9318 23.0062C80.3038 23.3223 79.592 23.4324 78.8978 23.3207C78.2036 23.209 77.5623 22.8812 77.0652 22.384C76.568 21.8868 76.2402 21.2455 76.1285 20.5514C76.0168 19.8572 76.1268 19.1454 76.443 18.5174C76.7591 17.8893 77.2652 17.3769 77.8893 17.0531C78.5134 16.7292 79.2237 16.6104 79.9193 16.7136C80.6287 16.8188 81.2855 17.1494 81.7927 17.6565C82.2998 18.1637 82.6304 18.8205 82.7356 19.5299Z" stroke="white" stroke-width="1.5" stroke-linecap="round" stroke-linejoin="round"/>
</svg>
