<svg width="170" height="88" viewBox="0 0 170 88" fill="none" xmlns="http://www.w3.org/2000/svg">
<g filter="url(#filter0_d_10642_3)">
<rect x="23" y="18" width="41.7571" height="41.7571" rx="20.8785" fill="#E3B873"/>
<rect x="19" y="14" width="49.7571" height="49.7571" rx="24.8785" stroke="white" stroke-width="8"/>
</g>
<path d="M38.4708 44.7517C37.4988 44.7517 36.6168 44.4937 35.8248 43.9777C35.0328 43.4617 34.4028 42.7117 33.9348 41.7277C33.4788 40.7317 33.2508 39.5497 33.2508 38.1817C33.2508 36.8137 33.4788 35.6377 33.9348 34.6537C34.4028 33.6577 35.0328 32.9017 35.8248 32.3857C36.6168 31.8697 37.4988 31.6117 38.4708 31.6117C39.4428 31.6117 40.3248 31.8697 41.1168 32.3857C41.9088 32.9017 42.5328 33.6577 42.9888 34.6537C43.4568 35.6377 43.6908 36.8137 43.6908 38.1817C43.6908 39.5497 43.4568 40.7317 42.9888 41.7277C42.5328 42.7117 41.9088 43.4617 41.1168 43.9777C40.3248 44.4937 39.4428 44.7517 38.4708 44.7517ZM38.4708 44.3917C39.8508 44.3917 40.5408 42.3217 40.5408 38.1817C40.5408 34.0417 39.8508 31.9717 38.4708 31.9717C37.0908 31.9717 36.4008 34.0417 36.4008 38.1817C36.4008 42.3217 37.0908 44.3917 38.4708 44.3917ZM45.0394 43.6717C45.0394 42.9637 45.1774 42.3217 45.4534 41.7457C45.7414 41.1577 46.0894 40.6477 46.4974 40.2157C46.9054 39.7837 47.4394 39.2737 48.0994 38.6857C48.7114 38.1457 49.1914 37.6957 49.5394 37.3357C49.8874 36.9637 50.1814 36.5497 50.4214 36.0937C50.6614 35.6257 50.7814 35.1217 50.7814 34.5817C50.7814 33.7897 50.5894 33.1717 50.2054 32.7277C49.8214 32.2837 49.3234 32.0617 48.7114 32.0617C48.3634 32.0617 48.0094 32.1097 47.6494 32.2057L47.2714 32.3317V35.2117L47.0374 35.2657C46.8454 35.2897 46.6834 35.3017 46.5514 35.3017C46.1434 35.3017 45.8134 35.1817 45.5614 34.9417C45.3214 34.6897 45.2014 34.3597 45.2014 33.9517C45.2014 33.5677 45.3454 33.1957 45.6334 32.8357C45.9334 32.4757 46.3714 32.1817 46.9474 31.9537C47.5354 31.7257 48.2434 31.6117 49.0714 31.6117C50.6914 31.6117 51.8914 31.9357 52.6714 32.5837C53.4514 33.2317 53.8414 34.1377 53.8414 35.3017C53.8414 36.0337 53.6494 36.6637 53.2654 37.1917C52.8934 37.7197 52.4314 38.1577 51.8794 38.5057C51.3394 38.8537 50.6134 39.2497 49.7014 39.6937C48.9334 40.0657 48.3094 40.3957 47.8294 40.6837C47.3614 40.9597 46.9234 41.2957 46.5154 41.6917C46.1194 42.0877 45.8374 42.5377 45.6694 43.0417H52.3294C52.4134 42.3937 52.6174 41.8537 52.9414 41.4217C53.0734 41.2177 53.2294 41.0377 53.4094 40.8817H53.9494V44.4817H45.0394V43.6717Z" fill="white"/>
<path d="M82.3649 41.6194V31.7494H88.4689V32.7154H83.5129V36.1594H88.1889V37.1254H83.5129V41.6194H82.3649ZM89.7441 41.6194V34.8154H90.8501V36.0334C91.2141 35.2121 91.9607 34.7594 93.0901 34.6754L93.4961 34.6334L93.5801 35.6134L92.8661 35.6974C92.2221 35.7534 91.7321 35.9587 91.3961 36.3134C91.0601 36.6587 90.8921 37.1347 90.8921 37.7414V41.6194H89.7441ZM97.7456 41.7454C96.6723 41.7454 95.8229 41.4327 95.1976 40.8074C94.5723 40.1727 94.2596 39.3141 94.2596 38.2314C94.2596 37.5314 94.3996 36.9154 94.6796 36.3834C94.9596 35.8421 95.3423 35.4267 95.8276 35.1374C96.3223 34.8387 96.8916 34.6894 97.5356 34.6894C98.4596 34.6894 99.1829 34.9881 99.7056 35.5854C100.228 36.1734 100.49 36.9854 100.49 38.0214V38.4554H95.3656C95.4029 39.2301 95.6269 39.8227 96.0376 40.2334C96.4483 40.6347 97.0176 40.8354 97.7456 40.8354C98.1563 40.8354 98.5483 40.7747 98.9216 40.6534C99.2949 40.5227 99.6496 40.3127 99.9856 40.0234L100.378 40.8214C100.07 41.1107 99.6776 41.3394 99.2016 41.5074C98.7256 41.6661 98.2403 41.7454 97.7456 41.7454ZM97.5636 35.5294C96.9196 35.5294 96.4109 35.7301 96.0376 36.1314C95.6643 36.5327 95.4449 37.0601 95.3796 37.7134H99.5096C99.4816 37.0227 99.2996 36.4861 98.9636 36.1034C98.6369 35.7207 98.1703 35.5294 97.5636 35.5294ZM105.197 41.7454C104.123 41.7454 103.274 41.4327 102.649 40.8074C102.023 40.1727 101.711 39.3141 101.711 38.2314C101.711 37.5314 101.851 36.9154 102.131 36.3834C102.411 35.8421 102.793 35.4267 103.279 35.1374C103.773 34.8387 104.343 34.6894 104.987 34.6894C105.911 34.6894 106.634 34.9881 107.157 35.5854C107.679 36.1734 107.941 36.9854 107.941 38.0214V38.4554H102.817C102.854 39.2301 103.078 39.8227 103.489 40.2334C103.899 40.6347 104.469 40.8354 105.197 40.8354C105.607 40.8354 105.999 40.7747 106.373 40.6534C106.746 40.5227 107.101 40.3127 107.437 40.0234L107.829 40.8214C107.521 41.1107 107.129 41.3394 106.653 41.5074C106.177 41.6661 105.691 41.7454 105.197 41.7454ZM105.015 35.5294C104.371 35.5294 103.862 35.7301 103.489 36.1314C103.115 36.5327 102.896 37.0601 102.831 37.7134H106.961C106.933 37.0227 106.751 36.4861 106.415 36.1034C106.088 35.7207 105.621 35.5294 105.015 35.5294ZM113.206 41.6194V34.8154H114.312V35.9634C114.517 35.5527 114.802 35.2401 115.166 35.0254C115.53 34.8014 115.954 34.6894 116.44 34.6894C117.504 34.6894 118.185 35.1514 118.484 36.0754C118.689 35.6461 118.992 35.3101 119.394 35.0674C119.795 34.8154 120.257 34.6894 120.78 34.6894C122.292 34.6894 123.048 35.5854 123.048 37.3774V41.6194H121.914V37.4334C121.914 36.8081 121.802 36.3507 121.578 36.0614C121.363 35.7627 121.004 35.6134 120.5 35.6134C119.949 35.6134 119.51 35.8094 119.184 36.2014C118.857 36.5934 118.694 37.1161 118.694 37.7694V41.6194H117.56V37.4334C117.56 36.8081 117.448 36.3507 117.224 36.0614C117.009 35.7627 116.65 35.6134 116.146 35.6134C115.586 35.6134 115.142 35.8094 114.816 36.2014C114.498 36.5934 114.34 37.1161 114.34 37.7694V41.6194H113.206ZM128.234 41.7454C127.161 41.7454 126.311 41.4327 125.686 40.8074C125.061 40.1727 124.748 39.3141 124.748 38.2314C124.748 37.5314 124.888 36.9154 125.168 36.3834C125.448 35.8421 125.831 35.4267 126.316 35.1374C126.811 34.8387 127.38 34.6894 128.024 34.6894C128.948 34.6894 129.671 34.9881 130.194 35.5854C130.717 36.1734 130.978 36.9854 130.978 38.0214V38.4554H125.854C125.891 39.2301 126.115 39.8227 126.526 40.2334C126.937 40.6347 127.506 40.8354 128.234 40.8354C128.645 40.8354 129.037 40.7747 129.41 40.6534C129.783 40.5227 130.138 40.3127 130.474 40.0234L130.866 40.8214C130.558 41.1107 130.166 41.3394 129.69 41.5074C129.214 41.6661 128.729 41.7454 128.234 41.7454ZM128.052 35.5294C127.408 35.5294 126.899 35.7301 126.526 36.1314C126.153 36.5327 125.933 37.0601 125.868 37.7134H129.998C129.97 37.0227 129.788 36.4861 129.452 36.1034C129.125 35.7207 128.659 35.5294 128.052 35.5294ZM135.349 41.7454C134.546 41.7454 133.944 41.5354 133.543 41.1154C133.142 40.6861 132.941 40.0701 132.941 39.2674V35.6974H131.611V34.8154H132.941V32.7294H134.075V34.8154H136.231V35.6974H134.075V39.1554C134.075 39.6874 134.187 40.0934 134.411 40.3734C134.635 40.6441 134.999 40.7794 135.503 40.7794C135.652 40.7794 135.802 40.7607 135.951 40.7234C136.1 40.6861 136.236 40.6487 136.357 40.6114L136.553 41.4794C136.432 41.5447 136.254 41.6054 136.021 41.6614C135.788 41.7174 135.564 41.7454 135.349 41.7454ZM140.511 41.7454C139.438 41.7454 138.589 41.4327 137.963 40.8074C137.338 40.1727 137.025 39.3141 137.025 38.2314C137.025 37.5314 137.165 36.9154 137.445 36.3834C137.725 35.8421 138.108 35.4267 138.593 35.1374C139.088 34.8387 139.657 34.6894 140.301 34.6894C141.225 34.6894 141.949 34.9881 142.471 35.5854C142.994 36.1734 143.255 36.9854 143.255 38.0214V38.4554H138.131C138.169 39.2301 138.393 39.8227 138.803 40.2334C139.214 40.6347 139.783 40.8354 140.511 40.8354C140.922 40.8354 141.314 40.7747 141.687 40.6534C142.061 40.5227 142.415 40.3127 142.751 40.0234L143.143 40.8214C142.835 41.1107 142.443 41.3394 141.967 41.5074C141.491 41.6661 141.006 41.7454 140.511 41.7454ZM140.329 35.5294C139.685 35.5294 139.177 35.7301 138.803 36.1314C138.43 36.5327 138.211 37.0601 138.145 37.7134H142.275C142.247 37.0227 142.065 36.4861 141.729 36.1034C141.403 35.7207 140.936 35.5294 140.329 35.5294ZM144.896 41.6194V34.8154H146.002V36.0334C146.366 35.2121 147.113 34.7594 148.242 34.6754L148.648 34.6334L148.732 35.6134L148.018 35.6974C147.374 35.7534 146.884 35.9587 146.548 36.3134C146.212 36.6587 146.044 37.1347 146.044 37.7414V41.6194H144.896ZM149.774 33.1214V31.8474H151.174V33.1214H149.774ZM149.914 41.6194V34.8154H151.048V41.6194H149.914ZM153.168 41.6194V34.8154H154.274V35.9774C154.498 35.5481 154.815 35.2261 155.226 35.0114C155.637 34.7967 156.099 34.6894 156.612 34.6894C158.227 34.6894 159.034 35.5854 159.034 37.3774V41.6194H157.9V37.4474C157.9 36.8127 157.774 36.3507 157.522 36.0614C157.279 35.7627 156.887 35.6134 156.346 35.6134C155.721 35.6134 155.221 35.8094 154.848 36.2014C154.484 36.5841 154.302 37.0974 154.302 37.7414V41.6194H153.168ZM164.135 44.2654C163.547 44.2654 162.992 44.1861 162.469 44.0274C161.956 43.8781 161.498 43.6494 161.097 43.3414L161.475 42.5154C161.895 42.8141 162.31 43.0287 162.721 43.1594C163.141 43.2901 163.594 43.3554 164.079 43.3554C165.423 43.3554 166.095 42.6647 166.095 41.2834V40.0794C165.899 40.5087 165.591 40.8494 165.171 41.1014C164.76 41.3441 164.289 41.4654 163.757 41.4654C163.132 41.4654 162.59 41.3207 162.133 41.0314C161.676 40.7421 161.321 40.3454 161.069 39.8414C160.826 39.3281 160.705 38.7354 160.705 38.0634C160.705 37.3914 160.826 36.8034 161.069 36.2994C161.321 35.7861 161.676 35.3894 162.133 35.1094C162.59 34.8294 163.132 34.6894 163.757 34.6894C164.289 34.6894 164.76 34.8107 165.171 35.0534C165.591 35.2961 165.899 35.6274 166.095 36.0474V34.8154H167.201V41.1294C167.201 42.1747 166.94 42.9587 166.417 43.4814C165.904 44.0041 165.143 44.2654 164.135 44.2654ZM163.967 40.5414C164.62 40.5414 165.138 40.3174 165.521 39.8694C165.904 39.4214 166.095 38.8194 166.095 38.0634C166.095 37.3074 165.904 36.7101 165.521 36.2714C165.138 35.8234 164.62 35.5994 163.967 35.5994C163.323 35.5994 162.81 35.8234 162.427 36.2714C162.044 36.7101 161.853 37.3074 161.853 38.0634C161.853 38.8194 162.044 39.4214 162.427 39.8694C162.81 40.3174 163.323 40.5414 163.967 40.5414Z" fill="#363636"/>
<defs>
<filter id="filter0_d_10642_3" x="0" y="0" width="87.757" height="87.7571" filterUnits="userSpaceOnUse" color-interpolation-filters="sRGB">
<feFlood flood-opacity="0" result="BackgroundImageFix"/>
<feColorMatrix in="SourceAlpha" type="matrix" values="0 0 0 0 0 0 0 0 0 0 0 0 0 0 0 0 0 0 127 0" result="hardAlpha"/>
<feOffset dy="5"/>
<feGaussianBlur stdDeviation="7.5"/>
<feColorMatrix type="matrix" values="0 0 0 0 0.890196 0 0 0 0 0.721569 0 0 0 0 0.45098 0 0 0 0.15 0"/>
<feBlend mode="normal" in2="BackgroundImageFix" result="effect1_dropShadow_10642_3"/>
<feBlend mode="normal" in="SourceGraphic" in2="effect1_dropShadow_10642_3" result="shape"/>
</filter>
</defs>
</svg>
